<?xml version="1.0" encoding="UTF-8"?>
<svg id="Layer_1" data-name="Layer 1" xmlns="http://www.w3.org/2000/svg" viewBox="0 0 15.14 15.54">
  <defs>
    <style>
      .cls-1 {
        fill: #4edad5;
      }

      .cls-2 {
        fill: #006a67;
      }
    </style>
  </defs>
  <g>
    <path class="cls-2" d="m8.37,0v.76c1.69,0,3.27.65,4.47,1.83l.54-.54c-1.33-1.32-3.12-2.05-5.01-2.05Zm4.46,2.49c-1.18-1.15-2.74-1.78-4.39-1.8V.07c1.82.02,3.53.72,4.83,1.98l-.44.44Z"/>
    <path class="cls-2" d="m15.13,7.33c-.1-1.64-.79-3.26-2.06-4.51l-.55.54c1.04.94,1.7,2.55,1.83,3.94.16,1.8-.54,3.62-1.83,4.89l.55.54c1.44-1.43,2.19-3.38,2.06-5.4Zm-.1,1.17c-.2-.12-.4-.22-.6-.32.02-.3.02-.59-.01-.89-.13-1.5-.84-3.04-1.8-3.94l.44-.44c1.18,1.19,1.88,2.76,1.99,4.42.03.39.02.78-.03,1.17Z"/>
    <path class="cls-2" d="m3.05,2.82l.54.54c1.19-1.18,2.78-1.83,4.47-1.83v-.76c-1.81,0-3.63.69-5.01,2.06Zm4.94-1.36c-1.65.02-3.21.66-4.39,1.8l-.44-.44c1.3-1.26,3.01-1.97,4.83-1.98v.62Z"/>
    <path class="cls-2" d="m2.84,2.97l-.59-.59c-3,2.96-3,7.82,0,10.78l.59-.59C.15,9.92.15,5.62,2.84,2.97Zm-.81,8.76c-.13.21-.25.43-.37.66C.63,11.08.07,9.47.07,7.77.07,5.77.84,3.9,2.25,2.48l.49.49c-1.28,1.29-1.98,2.99-1.98,4.8,0,1.44.45,2.81,1.27,3.96Z"/>
    <path class="cls-1" d="m13.37,13.49c-1.38,1.37-3.2,2.06-5.01,2.06v-.76c1.69,0,3.27-.65,4.47-1.83l.54.54Z"/>
    <path class="cls-1" d="m8.06,14.02v.76c-1.81,0-3.63-.68-5.01-2.05l.54-.54c1.19,1.18,2.78,1.83,4.47,1.83Z"/>
    <path class="cls-1" d="m11.62,4.25l.9-.89c-1.19-1.18-2.77-1.83-4.46-1.83v1.26c-1.39,0-2.65.56-3.56,1.46l-.9-.89c-2.46,2.44-2.46,6.4,0,8.83l.9-.89c.91.9,2.17,1.46,3.56,1.46v1.26c1.69,0,3.27-.65,4.46-1.83l-.9-.89c1.96-1.94,1.96-5.11,0-7.05Zm-1.03,4.83c-.76.52-2.36,1.43-3.2,1.85-.7.35-1.52-.1-1.53-.88,0-.46,0-1.15,0-1.84-.9.45-1.73,1.05-2.45,1.77-.27.27-.53.56-.77.87-.54-.92-.82-1.97-.83-3.07,0-1.63.63-3.16,1.78-4.32l.9.89.05-.05c.94-.93,2.18-1.44,3.51-1.44h.07v-1.26c1.62.02,3.14.64,4.29,1.76l-.9.89.05.05c.89.88,1.4,2.06,1.44,3.31-.68-.21-1.39-.35-2.11-.41.16.23.2.51.15.77.09.4-.07.84-.47,1.11Z"/>
  </g>
  <g>
    <path class="cls-1" d="m13.27,2.05l-.44.44c-1.18-1.15-2.74-1.78-4.39-1.8V.07c1.82.02,3.53.72,4.83,1.98Z"/>
    <path class="cls-1" d="m15.03,8.5c-.2-.12-.4-.22-.6-.32.02-.3.02-.59-.01-.89-.13-1.5-.84-3.04-1.8-3.94l.44-.44c1.18,1.19,1.88,2.76,1.99,4.42.03.39.02.78-.03,1.17Z"/>
    <path class="cls-1" d="m7.98.83v.62c-1.65.02-3.21.66-4.39,1.8l-.44-.44c1.3-1.26,3.01-1.97,4.83-1.98Z"/>
    <path class="cls-1" d="m.75,7.77c0,1.44.45,2.81,1.27,3.96-.13.21-.25.43-.37.66C.63,11.08.07,9.47.07,7.77.07,5.77.84,3.9,2.25,2.48l.49.49c-1.28,1.29-1.98,2.99-1.98,4.8Z"/>
    <path class="cls-2" d="m13.01,7.61c-.68-.21-1.39-.35-2.11-.41-.08-.12-.19-.22-.32-.31-.78-.5-2.37-1.43-3.2-1.85-.7-.36-1.52.1-1.53.88,0,.42,0,1.04,0,1.67,0,.2,0,.41,0,.61-.9.45-1.73,1.05-2.45,1.77-.27.27-.53.56-.77.87-.54-.92-.82-1.97-.83-3.07,0-1.63.63-3.16,1.78-4.32l.9.89.05-.05c.94-.93,2.18-1.44,3.51-1.44h.07v-1.26c1.62.02,3.14.64,4.29,1.76l-.9.89.05.05c.89.88,1.4,2.06,1.44,3.31Z"/>
  </g>
  <path class="cls-2" d="m10.59,9.08c-.76.52-2.36,1.43-3.2,1.85-.7.35-1.52-.1-1.53-.88,0-.46,0-1.15,0-1.84,0,0,0,0,0,0,0,.54,0,1.05,0,1.41,0,.78.82,1.23,1.53.88.83-.41,2.43-1.33,3.2-1.84.26-.17.41-.42.47-.68.09.4-.07.84-.47,1.11Z"/>
</svg>